<svg width="20" height="20" viewBox="0 0 20 20" fill="none" xmlns="http://www.w3.org/2000/svg">
<g clip-path="url(#clip0_2922_2749)">
<path d="M19.805 10.2304C19.805 9.55059 19.7499 8.86714 19.6323 8.19839H10.2V12.0492H15.6014C15.3773 13.2912 14.6571 14.3898 13.6025 15.088V17.5866H16.825C18.7173 15.8449 19.805 13.2728 19.805 10.2304Z" fill="#4285F4"/>
<path d="M10.2 20.0007C12.8971 20.0007 15.1716 19.1151 16.8287 17.5866L13.6063 15.0879C12.7097 15.6979 11.5522 16.0433 10.2037 16.0433C7.59486 16.0433 5.38285 14.2832 4.58917 11.9169H1.26379V14.4927C2.96139 17.8695 6.41904 20.0007 10.2 20.0007Z" fill="#34A853"/>
<path d="M4.5854 11.9169C4.16651 10.675 4.16651 9.33011 4.5854 8.08814V5.51236H1.2637C-0.154633 8.33801 -0.154633 11.6671 1.2637 14.4927L4.5854 11.9169Z" fill="#FBBC04"/>
<path d="M10.2 3.95805C11.6257 3.936 13.0036 4.47247 14.0362 5.45722L16.8912 2.60218C15.0834 0.904587 12.684 -0.0287217 10.2 0.000673888C6.41904 0.000673888 2.96139 2.13185 1.26379 5.51234L4.58549 8.08813C5.3755 5.71811 7.59119 3.95805 10.2 3.95805Z" fill="#EA4335"/>
</g>
<defs>
<clipPath id="clip0_2922_2749">
<rect width="20" height="20" fill="white"/>
</clipPath>
</defs>
</svg>
