<svg width="18" height="18" viewBox="0 0 18 18" fill="none" xmlns="http://www.w3.org/2000/svg">
<path d="M11.5 4.83333C12.4205 4.83333 13.1667 5.57953 13.1667 6.5M16.5 6.5C16.5 9.26142 14.2614 11.5 11.5 11.5C10.9949 11.5 10.5072 11.4251 10.0476 11.2858L8.16667 13.1667H6.5V14.8333H4.83333V16.5H2.33333C1.8731 16.5 1.5 16.1269 1.5 15.6667V13.5118C1.5 13.2908 1.5878 13.0789 1.74408 12.9226L6.71423 7.95244C6.57491 7.49279 6.5 7.00514 6.5 6.5C6.5 3.73858 8.73858 1.5 11.5 1.5C14.2614 1.5 16.5 3.73858 16.5 6.5Z" stroke="#94A3B8" stroke-width="2" stroke-linecap="round" stroke-linejoin="round"/>
</svg>
