<svg width="171" height="26" viewBox="0 0 171 26" fill="none" xmlns="http://www.w3.org/2000/svg">
<path d="M13.61 14.2C14.83 14.46 15.81 15.07 16.55 16.03C17.29 16.97 17.66 18.05 17.66 19.27C17.66 21.03 17.04 22.43 15.8 23.47C14.58 24.49 12.87 25 10.67 25H0.86V3.94H10.34C12.48 3.94 14.15 4.43 15.35 5.41C16.57 6.39 17.18 7.72 17.18 9.4C17.18 10.64 16.85 11.67 16.19 12.49C15.55 13.31 14.69 13.88 13.61 14.2ZM5.99 12.46H9.35C10.19 12.46 10.83 12.28 11.27 11.92C11.73 11.54 11.96 10.99 11.96 10.27C11.96 9.55 11.73 9 11.27 8.62C10.83 8.24 10.19 8.05 9.35 8.05H5.99V12.46ZM9.77 20.86C10.63 20.86 11.29 20.67 11.75 20.29C12.23 19.89 12.47 19.32 12.47 18.58C12.47 17.84 12.22 17.26 11.72 16.84C11.24 16.42 10.57 16.21 9.71 16.21H5.99V20.86H9.77ZM37.1654 8.26V25H32.0354V22.72C31.5154 23.46 30.8054 24.06 29.9054 24.52C29.0254 24.96 28.0454 25.18 26.9654 25.18C25.6854 25.18 24.5554 24.9 23.5754 24.34C22.5954 23.76 21.8354 22.93 21.2954 21.85C20.7554 20.77 20.4854 19.5 20.4854 18.04V8.26H25.5854V17.35C25.5854 18.47 25.8754 19.34 26.4554 19.96C27.0354 20.58 27.8154 20.89 28.7954 20.89C29.7954 20.89 30.5854 20.58 31.1654 19.96C31.7454 19.34 32.0354 18.47 32.0354 17.35V8.26H37.1654ZM43.4302 6.52C42.5302 6.52 41.7902 6.26 41.2102 5.74C40.6502 5.2 40.3702 4.54 40.3702 3.76C40.3702 2.96 40.6502 2.3 41.2102 1.78C41.7902 1.24 42.5302 0.969998 43.4302 0.969998C44.3102 0.969998 45.0302 1.24 45.5902 1.78C46.1702 2.3 46.4602 2.96 46.4602 3.76C46.4602 4.54 46.1702 5.2 45.5902 5.74C45.0302 6.26 44.3102 6.52 43.4302 6.52ZM45.9802 8.26V25H40.8502V8.26H45.9802ZM54.8279 2.8V25H49.6979V2.8H54.8279ZM57.5255 16.6C57.5255 14.88 57.8455 13.37 58.4855 12.07C59.1455 10.77 60.0355 9.77 61.1555 9.07C62.2755 8.37 63.5255 8.02 64.9055 8.02C66.0055 8.02 67.0055 8.25 67.9055 8.71C68.8255 9.17 69.5455 9.79 70.0655 10.57V2.8H75.1955V25H70.0655V22.6C69.5855 23.4 68.8955 24.04 67.9955 24.52C67.1155 25 66.0855 25.24 64.9055 25.24C63.5255 25.24 62.2755 24.89 61.1555 24.19C60.0355 23.47 59.1455 22.46 58.4855 21.16C57.8455 19.84 57.5255 18.32 57.5255 16.6ZM70.0655 16.63C70.0655 15.35 69.7055 14.34 68.9855 13.6C68.2855 12.86 67.4255 12.49 66.4055 12.49C65.3855 12.49 64.5155 12.86 63.7955 13.6C63.0955 14.32 62.7455 15.32 62.7455 16.6C62.7455 17.88 63.0955 18.9 63.7955 19.66C64.5155 20.4 65.3855 20.77 66.4055 20.77C67.4255 20.77 68.2855 20.4 68.9855 19.66C69.7055 18.92 70.0655 17.91 70.0655 16.63Z" fill="#0F172A"/>
<path d="M91.6569 14.2C92.8769 14.46 93.8569 15.07 94.5969 16.03C95.3369 16.97 95.7069 18.05 95.7069 19.27C95.7069 21.03 95.0869 22.43 93.8469 23.47C92.6269 24.49 90.9169 25 88.7169 25H78.9069V3.94H88.3869C90.5269 3.94 92.1969 4.43 93.3969 5.41C94.6169 6.39 95.2269 7.72 95.2269 9.4C95.2269 10.64 94.8969 11.67 94.2369 12.49C93.5969 13.31 92.7369 13.88 91.6569 14.2ZM84.0369 12.46H87.3969C88.2369 12.46 88.8769 12.28 89.3169 11.92C89.7769 11.54 90.0069 10.99 90.0069 10.27C90.0069 9.55 89.7769 9 89.3169 8.62C88.8769 8.24 88.2369 8.05 87.3969 8.05H84.0369V12.46ZM87.8169 20.86C88.6769 20.86 89.3369 20.67 89.7969 20.29C90.2769 19.89 90.5169 19.32 90.5169 18.58C90.5169 17.84 90.2669 17.26 89.7669 16.84C89.2869 16.42 88.6169 16.21 87.7569 16.21H84.0369V20.86H87.8169ZM114.462 16.36C114.462 16.84 114.432 17.34 114.372 17.86H102.762C102.842 18.9 103.172 19.7 103.752 20.26C104.352 20.8 105.082 21.07 105.942 21.07C107.222 21.07 108.112 20.53 108.612 19.45H114.072C113.792 20.55 113.282 21.54 112.542 22.42C111.822 23.3 110.912 23.99 109.812 24.49C108.712 24.99 107.482 25.24 106.122 25.24C104.482 25.24 103.022 24.89 101.742 24.19C100.462 23.49 99.4623 22.49 98.7423 21.19C98.0223 19.89 97.6623 18.37 97.6623 16.63C97.6623 14.89 98.0123 13.37 98.7123 12.07C99.4323 10.77 100.432 9.77 101.712 9.07C102.992 8.37 104.462 8.02 106.122 8.02C107.742 8.02 109.182 8.36 110.442 9.04C111.702 9.72 112.682 10.69 113.382 11.95C114.102 13.21 114.462 14.68 114.462 16.36ZM109.212 15.01C109.212 14.13 108.912 13.43 108.312 12.91C107.712 12.39 106.962 12.13 106.062 12.13C105.202 12.13 104.472 12.38 103.872 12.88C103.292 13.38 102.932 14.09 102.792 15.01H109.212ZM126.499 20.65V25H123.889C122.029 25 120.579 24.55 119.539 23.65C118.499 22.73 117.979 21.24 117.979 19.18V12.52H115.939V8.26H117.979V4.18H123.109V8.26H126.469V12.52H123.109V19.24C123.109 19.74 123.229 20.1 123.469 20.32C123.709 20.54 124.109 20.65 124.669 20.65H126.499ZM138.686 20.65V25H136.076C134.216 25 132.766 24.55 131.726 23.65C130.686 22.73 130.166 21.24 130.166 19.18V12.52H128.126V8.26H130.166V4.18H135.296V8.26H138.656V12.52H135.296V19.24C135.296 19.74 135.416 20.1 135.656 20.32C135.896 20.54 136.296 20.65 136.856 20.65H138.686ZM157.324 16.36C157.324 16.84 157.294 17.34 157.234 17.86H145.624C145.704 18.9 146.034 19.7 146.614 20.26C147.214 20.8 147.944 21.07 148.804 21.07C150.084 21.07 150.974 20.53 151.474 19.45H156.934C156.654 20.55 156.144 21.54 155.404 22.42C154.684 23.3 153.774 23.99 152.674 24.49C151.574 24.99 150.344 25.24 148.984 25.24C147.344 25.24 145.884 24.89 144.604 24.19C143.324 23.49 142.324 22.49 141.604 21.19C140.884 19.89 140.524 18.37 140.524 16.63C140.524 14.89 140.874 13.37 141.574 12.07C142.294 10.77 143.294 9.77 144.574 9.07C145.854 8.37 147.324 8.02 148.984 8.02C150.604 8.02 152.044 8.36 153.304 9.04C154.564 9.72 155.544 10.69 156.244 11.95C156.964 13.21 157.324 14.68 157.324 16.36ZM152.074 15.01C152.074 14.13 151.774 13.43 151.174 12.91C150.574 12.39 149.824 12.13 148.924 12.13C148.064 12.13 147.334 12.38 146.734 12.88C146.154 13.38 145.794 14.09 145.654 15.01H152.074ZM165.16 11.05C165.76 10.13 166.51 9.41 167.41 8.89C168.31 8.35 169.31 8.08 170.41 8.08V13.51H169C167.72 13.51 166.76 13.79 166.12 14.35C165.48 14.89 165.16 15.85 165.16 17.23V25H160.03V8.26H165.16V11.05Z" fill="#2563EB"/>
</svg>
