<svg width="20" height="20" viewBox="0 0 20 20" fill="none" xmlns="http://www.w3.org/2000/svg">
<path d="M13.3333 10C13.3333 8.15905 11.8409 6.66667 10 6.66667C8.15905 6.66667 6.66667 8.15905 6.66667 10C6.66667 11.8409 8.15905 13.3333 10 13.3333C11.8409 13.3333 13.3333 11.8409 13.3333 10ZM13.3333 10V11.25C13.3333 12.4006 14.2661 13.3333 15.4167 13.3333C16.5673 13.3333 17.5 12.4006 17.5 11.25V10C17.5 5.85786 14.1421 2.5 10 2.5C5.85786 2.5 2.5 5.85786 2.5 10C2.5 14.1421 5.85786 17.5 10 17.5M13.75 16.4952C12.5667 17.1784 11.2746 17.5024 9.99997 17.5013" stroke="#94A3B8" stroke-width="2" stroke-linecap="round" stroke-linejoin="round"/>
</svg>
