<svg width="33" height="22" viewBox="0 0 33 22" fill="none" xmlns="http://www.w3.org/2000/svg">
<path d="M13.61 11.2C14.83 11.46 15.81 12.07 16.55 13.03C17.29 13.97 17.66 15.05 17.66 16.27C17.66 18.03 17.04 19.43 15.8 20.47C14.58 21.49 12.87 22 10.67 22H0.86V0.939999H10.34C12.48 0.939999 14.15 1.43 15.35 2.41C16.57 3.39 17.18 4.72 17.18 6.4C17.18 7.64 16.85 8.67 16.19 9.49C15.55 10.31 14.69 10.88 13.61 11.2ZM5.99 9.46H9.35C10.19 9.46 10.83 9.28 11.27 8.92C11.73 8.54 11.96 7.99 11.96 7.27C11.96 6.55 11.73 6 11.27 5.62C10.83 5.24 10.19 5.05 9.35 5.05H5.99V9.46ZM9.77 17.86C10.63 17.86 11.29 17.67 11.75 17.29C12.23 16.89 12.47 16.32 12.47 15.58C12.47 14.84 12.22 14.26 11.72 13.84C11.24 13.42 10.57 13.21 9.71 13.21H5.99V17.86H9.77Z" fill="#0F172A"/>
<path d="M28.5854 11.2C29.8054 11.46 30.7854 12.07 31.5254 13.03C32.2654 13.97 32.6354 15.05 32.6354 16.27C32.6354 18.03 32.0154 19.43 30.7754 20.47C29.5554 21.49 27.8454 22 25.6454 22H15.8354V0.939999H25.3154C27.4554 0.939999 29.1254 1.43 30.3254 2.41C31.5454 3.39 32.1554 4.72 32.1554 6.4C32.1554 7.64 31.8254 8.67 31.1654 9.49C30.5254 10.31 29.6654 10.88 28.5854 11.2ZM20.9654 9.46H24.3254C25.1654 9.46 25.8054 9.28 26.2454 8.92C26.7054 8.54 26.9354 7.99 26.9354 7.27C26.9354 6.55 26.7054 6 26.2454 5.62C25.8054 5.24 25.1654 5.05 24.3254 5.05H20.9654V9.46ZM24.7454 17.86C25.6054 17.86 26.2654 17.67 26.7254 17.29C27.2054 16.89 27.4454 16.32 27.4454 15.58C27.4454 14.84 27.1954 14.26 26.6954 13.84C26.2154 13.42 25.5454 13.21 24.6854 13.21H20.9654V17.86H24.7454Z" fill="#2563EB"/>
</svg>
